<svg width="300" height="40" viewBox="0 0 300 40" fill="none" xmlns="http://www.w3.org/2000/svg">
<rect width="300" height="40" rx="10" fill="#AD6CFF"/>
<path d="M0 10C0 4.47715 4.47715 0 10 0H290C294.418 0 298 3.58172 298 8C298 25.6731 283.673 40 266 40H10C4.47716 40 0 35.5228 0 30V10Z" fill="#8D33FF"/>
<path d="M0 10C0 4.47715 4.47715 0 10 0H273C277.418 0 281 3.58172 281 8C281 25.6731 266.673 40 249 40H10C4.47715 40 0 35.5228 0 30V10Z" fill="#7305FF"/>
<path d="M0 10C0 4.47715 4.47715 0 10 0H260.556C263.01 0 265 1.98985 265 4.44444C265 24.0812 249.081 40 229.444 40H9.99999C4.47714 40 0 35.5228 0 30V10Z" fill="#4E00B0"/>
<path d="M0 10C0 4.47715 4.47715 0 10 0H239.286C242.442 0 245 2.55837 245 5.71429C245 24.6498 229.65 40 210.714 40H10C4.47715 40 0 35.5228 0 30V10Z" fill="#28005C"/>
<path d="M69.098 25.16C68.3087 25.16 67.6313 25.032 67.066 24.776C66.5007 24.5093 66.0633 24.136 65.754 23.656C65.4447 23.1653 65.29 22.584 65.29 21.912H67.002C67.002 22.4453 67.1887 22.8667 67.562 23.176C67.9353 23.4747 68.4527 23.624 69.114 23.624C69.7327 23.624 70.218 23.4747 70.57 23.176C70.922 22.8773 71.098 22.4667 71.098 21.944C71.098 21.5067 70.9753 21.128 70.73 20.808C70.4953 20.488 70.154 20.2693 69.706 20.152L68.234 19.72C67.3807 19.4747 66.7193 19.0587 66.25 18.472C65.7913 17.8747 65.562 17.1653 65.562 16.344C65.562 15.704 65.706 15.144 65.994 14.664C66.282 14.184 66.6927 13.8107 67.226 13.544C67.7593 13.2773 68.3887 13.144 69.114 13.144C70.1807 13.144 71.034 13.432 71.674 14.008C72.3247 14.584 72.6553 15.3573 72.666 16.328H70.938C70.938 15.816 70.7727 15.416 70.442 15.128C70.122 14.8293 69.6687 14.68 69.082 14.68C68.5167 14.68 68.074 14.8187 67.754 15.096C67.434 15.3627 67.274 15.7413 67.274 16.232C67.274 16.6693 67.3913 17.048 67.626 17.368C67.8713 17.688 68.218 17.912 68.666 18.04L70.154 18.488C71.0073 18.7227 71.6633 19.1387 72.122 19.736C72.5807 20.3333 72.81 21.048 72.81 21.88C72.81 22.5307 72.6553 23.1067 72.346 23.608C72.0367 24.0987 71.6047 24.4827 71.05 24.76C70.4953 25.0267 69.8447 25.16 69.098 25.16ZM79.6038 25C78.8038 25 78.1798 24.7813 77.7318 24.344C77.2838 23.9067 77.0598 23.2987 77.0598 22.52V17.768H74.6278V16.2H77.0598V13.72H78.7878V16.2H82.2278V17.768H78.7878V22.52C78.7878 23.128 79.0811 23.432 79.6678 23.432H82.0677V25H79.6038ZM87.3575 25.16C86.4402 25.16 85.7148 24.9253 85.1815 24.456C84.6588 23.976 84.3975 23.3253 84.3975 22.504C84.3975 21.672 84.6748 21.0213 85.2295 20.552C85.7948 20.072 86.5682 19.832 87.5495 19.832H89.9975V19.016C89.9975 18.536 89.8482 18.1627 89.5495 17.896C89.2508 17.6293 88.8295 17.496 88.2855 17.496C87.8055 17.496 87.4055 17.6027 87.0855 17.816C86.7655 18.0187 86.5788 18.2907 86.5255 18.632H84.8295C84.9255 17.8427 85.2882 17.2133 85.9175 16.744C86.5575 16.2747 87.3628 16.04 88.3335 16.04C89.3788 16.04 90.2055 16.3067 90.8135 16.84C91.4215 17.3627 91.7255 18.0773 91.7255 18.984V25H90.0455V23.384H89.7575L90.0455 23.064C90.0455 23.704 89.8002 24.216 89.3095 24.6C88.8188 24.9733 88.1682 25.16 87.3575 25.16ZM87.8695 23.832C88.4882 23.832 88.9948 23.6773 89.3895 23.368C89.7948 23.048 89.9975 22.6427 89.9975 22.152V21H87.5815C87.1335 21 86.7762 21.1227 86.5095 21.368C86.2535 21.6133 86.1255 21.9493 86.1255 22.376C86.1255 22.824 86.2802 23.1813 86.5895 23.448C86.8988 23.704 87.3255 23.832 87.8695 23.832ZM94.6633 25V16.2H96.3273V17.88H96.7433L96.2153 18.92C96.2153 17.9707 96.4233 17.256 96.8393 16.776C97.2553 16.2853 97.8739 16.04 98.6953 16.04C99.6339 16.04 100.375 16.3333 100.919 16.92C101.474 17.496 101.751 18.2907 101.751 19.304V19.896H99.9753V19.448C99.9753 18.8187 99.8153 18.3387 99.4953 18.008C99.1859 17.6667 98.7486 17.496 98.1833 17.496C97.6179 17.496 97.1753 17.6667 96.8553 18.008C96.5459 18.3493 96.3913 18.8293 96.3913 19.448V25H94.6633ZM108.385 25C107.585 25 106.961 24.7813 106.513 24.344C106.065 23.9067 105.841 23.2987 105.841 22.52V17.768H103.409V16.2H105.841V13.72H107.569V16.2H111.009V17.768H107.569V22.52C107.569 23.128 107.862 23.432 108.449 23.432H110.849V25H108.385ZM123.557 25V13.32H125.285V23.416H130.389V25H123.557ZM132.702 25V23.432H135.79V17.768H133.102V16.2H137.47V23.432H140.302V25H132.702ZM136.462 14.68C136.089 14.68 135.79 14.584 135.566 14.392C135.342 14.1893 135.23 13.9227 135.23 13.592C135.23 13.2507 135.342 12.984 135.566 12.792C135.79 12.5893 136.089 12.488 136.462 12.488C136.836 12.488 137.134 12.5893 137.358 12.792C137.582 12.984 137.694 13.2507 137.694 13.592C137.694 13.9227 137.582 14.1893 137.358 14.392C137.134 14.584 136.836 14.68 136.462 14.68ZM145.496 25.144C144.867 25.144 144.312 25.0427 143.832 24.84C143.363 24.6373 142.989 24.36 142.712 24.008C142.445 23.6453 142.291 23.2187 142.248 22.728H143.976C144.019 23.016 144.173 23.2507 144.44 23.432C144.707 23.6027 145.059 23.688 145.496 23.688H146.184C146.707 23.688 147.101 23.5813 147.368 23.368C147.635 23.1547 147.768 22.872 147.768 22.52C147.768 22.1787 147.645 21.912 147.4 21.72C147.165 21.5173 146.813 21.384 146.344 21.32L145.208 21.144C144.269 20.9947 143.576 20.728 143.128 20.344C142.691 19.9493 142.472 19.368 142.472 18.6C142.472 17.7893 142.733 17.1653 143.256 16.728C143.789 16.28 144.573 16.056 145.608 16.056H146.216C147.133 16.056 147.864 16.2693 148.408 16.696C148.963 17.112 149.277 17.672 149.352 18.376H147.624C147.581 18.12 147.437 17.912 147.192 17.752C146.957 17.592 146.632 17.512 146.216 17.512H145.608C145.107 17.512 144.739 17.608 144.504 17.8C144.28 17.9813 144.168 18.2533 144.168 18.616C144.168 18.936 144.269 19.176 144.472 19.336C144.675 19.496 144.989 19.608 145.416 19.672L146.584 19.864C147.576 20.0027 148.301 20.28 148.76 20.696C149.229 21.1013 149.464 21.6933 149.464 22.472C149.464 23.3147 149.187 23.9707 148.632 24.44C148.088 24.9093 147.272 25.144 146.184 25.144H145.496ZM156.354 25C155.554 25 154.93 24.7813 154.482 24.344C154.034 23.9067 153.81 23.2987 153.81 22.52V17.768H151.378V16.2H153.81V13.72H155.538V16.2H158.978V17.768H155.538V22.52C155.538 23.128 155.831 23.432 156.418 23.432H158.818V25H156.354ZM164.988 25.16C164.273 25.16 163.644 25.0213 163.1 24.744C162.566 24.456 162.156 24.056 161.868 23.544C161.58 23.032 161.436 22.4347 161.436 21.752V19.448C161.436 18.7547 161.58 18.1573 161.868 17.656C162.156 17.144 162.566 16.7493 163.1 16.472C163.644 16.184 164.273 16.04 164.988 16.04C165.713 16.04 166.342 16.184 166.876 16.472C167.409 16.7493 167.82 17.144 168.108 17.656C168.396 18.1573 168.54 18.7547 168.54 19.448V21.016H163.1V21.752C163.1 22.4027 163.26 22.8987 163.58 23.24C163.91 23.5813 164.385 23.752 165.004 23.752C165.505 23.752 165.91 23.6667 166.22 23.496C166.529 23.3147 166.721 23.0533 166.796 22.712H168.508C168.38 23.4587 167.996 24.056 167.356 24.504C166.716 24.9413 165.926 25.16 164.988 25.16ZM166.876 19.976V19.432C166.876 18.792 166.716 18.296 166.396 17.944C166.076 17.592 165.606 17.416 164.988 17.416C164.38 17.416 163.91 17.592 163.58 17.944C163.26 18.296 163.1 18.7973 163.1 19.448V19.848L167.004 19.832L166.876 19.976ZM171.125 25V16.2H172.837V17.88H173.253L172.837 18.28C172.837 17.576 173.045 17.0267 173.461 16.632C173.877 16.2373 174.453 16.04 175.189 16.04C176.064 16.04 176.763 16.3227 177.285 16.888C177.808 17.4427 178.069 18.1947 178.069 19.144V25H176.341V19.336C176.341 18.76 176.187 18.3173 175.877 18.008C175.568 17.6987 175.147 17.544 174.613 17.544C174.069 17.544 173.637 17.7093 173.317 18.04C173.008 18.36 172.853 18.8293 172.853 19.448V25H171.125ZM180.671 25V23.432H183.759V17.768H181.071V16.2H185.439V23.432H188.271V25H180.671ZM184.431 14.68C184.058 14.68 183.759 14.584 183.535 14.392C183.311 14.1893 183.199 13.9227 183.199 13.592C183.199 13.2507 183.311 12.984 183.535 12.792C183.759 12.5893 184.058 12.488 184.431 12.488C184.804 12.488 185.103 12.5893 185.327 12.792C185.551 12.984 185.663 13.2507 185.663 13.592C185.663 13.9227 185.551 14.1893 185.327 14.392C185.103 14.584 184.804 14.68 184.431 14.68ZM190.313 25V16.2H192.025V17.88H192.441L192.025 18.28C192.025 17.576 192.233 17.0267 192.649 16.632C193.065 16.2373 193.641 16.04 194.377 16.04C195.251 16.04 195.95 16.3227 196.473 16.888C196.995 17.4427 197.257 18.1947 197.257 19.144V25H195.529V19.336C195.529 18.76 195.374 18.3173 195.065 18.008C194.755 17.6987 194.334 17.544 193.801 17.544C193.257 17.544 192.825 17.7093 192.505 18.04C192.195 18.36 192.041 18.8293 192.041 19.448V25H190.313ZM201.059 27.88V26.392H203.763C204.211 26.392 204.541 26.2853 204.755 26.072C204.979 25.8587 205.091 25.544 205.091 25.128V24.248L205.123 22.616H204.755L205.107 22.296C205.107 22.968 204.893 23.496 204.467 23.88C204.051 24.264 203.485 24.456 202.771 24.456C201.864 24.456 201.149 24.1573 200.627 23.56C200.104 22.9627 199.843 22.1573 199.843 21.144V19.352C199.843 18.3387 200.104 17.5333 200.627 16.936C201.149 16.3387 201.864 16.04 202.771 16.04C203.485 16.04 204.051 16.2373 204.467 16.632C204.893 17.016 205.107 17.544 205.107 18.216L204.755 17.88H205.107L205.091 16.2H206.803V25.16C206.803 26.0027 206.536 26.664 206.003 27.144C205.469 27.6347 204.728 27.88 203.779 27.88H201.059ZM203.331 22.968C203.875 22.968 204.301 22.8027 204.611 22.472C204.931 22.1307 205.091 21.6613 205.091 21.064V19.448C205.091 18.8507 204.931 18.3867 204.611 18.056C204.301 17.7147 203.875 17.544 203.331 17.544C202.765 17.544 202.328 17.7093 202.019 18.04C201.72 18.36 201.571 18.8293 201.571 19.448V21.064C201.571 21.672 201.72 22.1413 202.019 22.472C202.328 22.8027 202.765 22.968 203.331 22.968ZM212.332 21.416L211.98 15.384V13.32H213.932V15.384L213.58 21.416H212.332ZM212.716 25.08C212.418 25.08 212.172 24.9893 211.98 24.808C211.788 24.616 211.692 24.3707 211.692 24.072C211.692 23.7733 211.788 23.5333 211.98 23.352C212.172 23.16 212.418 23.064 212.716 23.064H213.196C213.516 23.064 213.767 23.16 213.948 23.352C214.13 23.5333 214.22 23.768 214.22 24.056C214.22 24.3547 214.124 24.6 213.932 24.792C213.74 24.984 213.495 25.08 213.196 25.08H212.716Z" fill="white"/>
</svg>
